P3 16 16 100
0 0 100	1 0 99	2 0 98	2 0 98	3 0 97	4 0 96	5 0 95	6 0 94	7 0 93	8 0 92	10 0 90	12 0 88	15 0 85	20 0 80	30 0 70	49 0 51	
1 0 99	2 0 98	4 0 96	5 0 95	7 0 93	8 0 92	10 0 90	12 0 88	14 0 86	16 0 84	19 0 81	23 0 77	29 0 71	37 0 63	49 0 51	69 0 31	
2 0 98	4 0 96	6 0 94	8 0 92	10 0 90	12 0 88	15 0 85	17 0 83	20 0 80	23 0 77	28 0 72	33 0 67	40 0 60	49 0 51	61 0 39	78 0 22	
2 0 98	5 0 95	8 0 92	11 0 89	13 0 87	16 0 84	19 0 81	22 0 78	26 0 74	30 0 70	35 0 65	41 0 59	48 0 52	57 0 43	69 0 31	83 0 17	
3 0 97	6 0 94	10 0 90	13 0 87	16 0 84	20 0 80	23 0 77	27 0 73	31 0 69	35 0 65	41 0 59	47 0 53	54 0 46	63 0 37	74 0 26	86 0 14	
4 0 96	7 0 93	11 0 89	15 0 85	19 0 81	23 0 77	27 0 73	31 0 69	35 0 65	40 0 60	46 0 54	52 0 48	59 0 41	68 0 32	77 0 23	88 0 12	
4 0 96	9 0 91	13 0 87	17 0 83	21 0 79	26 0 74	30 0 70	34 0 66	39 0 61	44 0 56	49 0 51	56 0 44	63 0 37	71 0 29	80 0 20	89 0 11	
5 0 95	10 0 90	14 0 86	19 0 81	24 0 76	28 0 72	33 0 67	37 0 63	42 0 58	47 0 53	52 0 48	59 0 41	65 0 35	73 0 27	81 0 19	90 0 10	
5 0 95	11 0 89	16 0 84	21 0 79	26 0 74	30 0 70	35 0 65	39 0 61	44 0 56	49 0 51	55 0 45	61 0 39	67 0 33	75 0 25	82 0 18	91 0 9	
6 0 94	12 0 88	17 0 83	23 0 77	28 0 72	32 0 68	37 0 63	41 0 59	46 0 54	51 0 49	56 0 44	62 0 38	68 0 32	75 0 25	83 0 17	91 0 9	
6 0 94	13 0 87	19 0 81	24 0 76	30 0 70	34 0 66	39 0 61	43 0 57	47 0 53	52 0 48	57 0 43	62 0 38	69 0 31	75 0 25	83 0 17	91 0 9	
7 0 93	14 0 86	21 0 79	27 0 73	32 0 68	36 0 64	40 0 60	44 0 56	48 0 52	53 0 47	57 0 43	62 0 38	68 0 32	75 0 25	82 0 18	91 0 9	
9 0 91	17 0 83	24 0 76	29 0 71	34 0 66	38 0 62	42 0 58	46 0 54	49 0 51	53 0 47	57 0 43	61 0 39	67 0 33	73 0 27	81 0 19	90 0 10	
11 0 89	20 0 80	27 0 73	33 0 67	37 0 63	41 0 59	44 0 56	47 0 53	49 0 51	52 0 48	56 0 44	60 0 40	64 0 36	70 0 30	78 0 22	88 0 12	
15 0 85	26 0 74	33 0 67	37 0 63	41 0 59	43 0 57	46 0 54	48 0 52	50 0 50	52 0 48	54 0 46	57 0 43	61 0 39	65 0 35	73 0 27	83 0 17	
25 0 75	35 0 65	40 0 60	43 0 57	45 0 55	46 0 54	47 0 53	49 0 51	50 0 50	51 0 49	52 0 48	53 0 47	55 0 45	59 0 41	64 0 36	74 0 26	
