P3 16 16 100
25 0 75	37 0 63	37 0 63	37 0 63	37 0 63	37 0 63	37 0 63	37 0 63	37 0 63	37 0 63	37 0 63	37 0 63	37 0 63	37 0 63	37 0 63	50 0 50	
37 0 63	50 0 50	50 0 50	50 0 50	50 0 50	50 0 50	50 0 50	50 0 50	50 0 50	50 0 50	50 0 50	50 0 50	50 0 50	50 0 50	50 0 50	62 0 38	
37 0 63	50 0 50	50 0 50	50 0 50	50 0 50	50 0 50	50 0 50	50 0 50	50 0 50	50 0 50	50 0 50	50 0 50	50 0 50	50 0 50	50 0 50	62 0 38	
25 0 75	37 0 63	37 0 63	-2147483648 0 -2147483548	-2147483648 0 -2147483548	-2147483648 0 -2147483548	-2147483648 0 -2147483548	37 0 63	37 0 63	37 0 63	37 0 63	37 0 63	37 0 63	37 0 63	37 0 63	50 0 50	
37 0 63	50 0 50	50 0 50	50 0 50	50 0 50	50 0 50	50 0 50	50 0 50	50 0 50	50 0 50	50 0 50	50 0 50	50 0 50	50 0 50	50 0 50	62 0 38	
37 0 63	50 0 50	50 0 50	50 0 50	50 0 50	50 0 50	50 0 50	50 0 50	50 0 50	50 0 50	50 0 50	50 0 50	50 0 50	50 0 50	50 0 50	62 0 38	
37 0 63	50 0 50	50 0 50	50 0 50	50 0 50	50 0 50	50 0 50	50 0 50	50 0 50	50 0 50	50 0 50	50 0 50	50 0 50	50 0 50	50 0 50	62 0 38	
37 0 63	50 0 50	50 0 50	50 0 50	50 0 50	50 0 50	50 0 50	50 0 50	50 0 50	50 0 50	50 0 50	50 0 50	50 0 50	50 0 50	50 0 50	62 0 38	
37 0 63	50 0 50	50 0 50	50 0 50	50 0 50	50 0 50	50 0 50	50 0 50	50 0 50	50 0 50	50 0 50	50 0 50	50 0 50	50 0 50	50 0 50	62 0 38	
37 0 63	50 0 50	50 0 50	50 0 50	50 0 50	50 0 50	50 0 50	50 0 50	50 0 50	50 0 50	50 0 50	50 0 50	50 0 50	50 0 50	50 0 50	62 0 38	
37 0 63	50 0 50	50 0 50	50 0 50	50 0 50	50 0 50	50 0 50	50 0 50	50 0 50	50 0 50	50 0 50	50 0 50	50 0 50	50 0 50	50 0 50	62 0 38	
37 0 63	50 0 50	50 0 50	50 0 50	50 0 50	50 0 50	50 0 50	50 0 50	50 0 50	50 0 50	50 0 50	50 0 50	50 0 50	50 0 50	50 0 50	62 0 38	
0 0 100	0 0 100	0 0 100	0 0 100	0 0 100	0 0 100	0 0 100	0 0 100	0 0 100	0 0 100	0 0 100	0 0 100	0 0 100	0 0 100	0 0 100	0 0 100	
0 0 100	0 0 100	0 0 100	0 0 100	0 0 100	0 0 100	0 0 100	0 0 100	0 0 100	0 0 100	0 0 100	0 0 100	0 0 100	0 0 100	0 0 100	0 0 100	
0 0 100	0 0 100	0 0 100	0 0 100	0 0 100	0 0 100	0 0 100	0 0 100	0 0 100	0 0 100	0 0 100	0 0 100	0 0 100	0 0 100	0 0 100	0 0 100	
0 0 100	0 0 100	0 0 100	0 0 100	0 0 100	0 0 100	0 0 100	0 0 100	0 0 100	0 0 100	0 0 100	0 0 100	0 0 100	0 0 100	0 0 100	0 0 100	
