P3 16 16 100
12 0 88	19 0 81	23 0 77	25 0 75	26 0 74	27 0 73	28 0 72	28 0 72	28 0 72	28 0 72	29 0 71	30 0 70	32 0 68	35 0 65	42 0 58	55 0 45	
8 0 92	13 0 87	17 0 83	19 0 81	20 0 80	21 0 79	21 0 79	22 0 78	22 0 78	23 0 77	23 0 77	25 0 75	28 0 72	34 0 66	45 0 55	65 0 35	
8 0 92	13 0 87	17 0 83	19 0 81	20 0 80	21 0 79	21 0 79	22 0 78	22 0 78	23 0 77	23 0 77	25 0 75	28 0 72	34 0 66	45 0 55	65 0 35	
12 0 88	19 0 81	23 0 77	25 0 75	26 0 74	27 0 73	28 0 72	28 0 72	28 0 72	28 0 72	29 0 71	30 0 70	32 0 68	35 0 65	42 0 58	55 0 45	
12 0 88	19 0 81	23 0 77	25 0 75	26 0 74	27 0 73	28 0 72	28 0 72	28 0 72	28 0 72	29 0 71	30 0 70	32 0 68	35 0 65	42 0 58	55 0 45	
18 0 82	29 0 71	36 0 64	39 0 61	41 0 59	42 0 58	43 0 57	43 0 57	44 0 56	44 0 56	45 0 55	47 0 53	50 0 50	55 0 45	64 0 36	78 0 22	
18 0 82	29 0 71	36 0 64	39 0 61	41 0 59	42 0 58	43 0 57	43 0 57	44 0 56	44 0 56	45 0 55	47 0 53	50 0 50	55 0 45	64 0 36	78 0 22	
12 0 88	19 0 81	23 0 77	25 0 75	26 0 74	27 0 73	28 0 72	28 0 72	28 0 72	28 0 72	29 0 71	30 0 70	32 0 68	35 0 65	42 0 58	55 0 45	
12 0 88	19 0 81	23 0 77	25 0 75	26 0 74	27 0 73	28 0 72	28 0 72	28 0 72	28 0 72	29 0 71	30 0 70	32 0 68	35 0 65	42 0 58	55 0 45	
17 0 83	29 0 71	35 0 65	39 0 61	41 0 59	42 0 58	43 0 57	43 0 57	44 0 56	44 0 56	45 0 55	47 0 53	49 0 51	54 0 46	63 0 37	78 0 22	
17 0 83	29 0 71	35 0 65	39 0 61	41 0 59	42 0 58	43 0 57	43 0 57	44 0 56	44 0 56	45 0 55	47 0 53	49 0 51	54 0 46	63 0 37	78 0 22	
12 0 88	19 0 81	23 0 77	25 0 75	26 0 74	27 0 73	28 0 72	28 0 72	28 0 72	28 0 72	29 0 71	30 0 70	32 0 68	35 0 65	42 0 58	55 0 45	
12 0 88	19 0 81	23 0 77	25 0 75	26 0 74	27 0 73	28 0 72	28 0 72	28 0 72	28 0 72	29 0 71	30 0 70	32 0 68	35 0 65	42 0 58	55 0 45	
12 0 88	19 0 81	23 0 77	26 0 74	27 0 73	28 0 72	29 0 71	29 0 71	29 0 71	30 0 70	31 0 69	33 0 67	36 0 64	41 0 59	52 0 48	71 0 29	
12 0 88	19 0 81	23 0 77	26 0 74	27 0 73	28 0 72	29 0 71	29 0 71	29 0 71	30 0 70	31 0 69	33 0 67	36 0 64	41 0 59	52 0 48	71 0 29	
12 0 88	19 0 81	23 0 77	25 0 75	26 0 74	27 0 73	28 0 72	28 0 72	28 0 72	28 0 72	29 0 71	30 0 70	32 0 68	35 0 65	42 0 58	55 0 45	
