P3 16 16 100
21 0 79	30 0 70	32 0 68	33 0 67	33 0 67	33 0 67	33 0 67	33 0 67	33 0 67	33 0 67	33 0 67	33 0 67	33 0 67	33 0 67	33 0 67	48 0 52	
37 0 63	50 0 50	50 0 50	50 0 50	50 0 50	50 0 50	50 0 50	50 0 50	50 0 50	50 0 50	50 0 50	50 0 50	50 0 50	50 0 50	50 0 50	62 0 38	
37 0 63	50 0 50	50 0 50	50 0 50	50 0 50	50 0 50	50 0 50	50 0 50	50 0 50	50 0 50	50 0 50	50 0 50	50 0 50	50 0 50	50 0 50	62 0 38	
21 0 79	30 0 70	32 0 68	33 0 67	33 0 67	33 0 67	33 0 67	33 0 67	33 0 67	33 0 67	33 0 67	33 0 67	33 0 67	33 0 67	33 0 67	48 0 52	
21 0 79	30 0 70	32 0 68	33 0 67	33 0 67	33 0 67	33 0 67	33 0 67	33 0 67	33 0 67	33 0 67	33 0 67	33 0 67	33 0 67	33 0 67	48 0 52	
37 0 63	50 0 50	50 0 50	50 0 50	50 0 50	50 0 50	50 0 50	50 0 50	50 0 50	50 0 50	50 0 50	50 0 50	50 0 50	50 0 50	50 0 50	62 0 38	
37 0 63	50 0 50	50 0 50	50 0 50	50 0 50	50 0 50	50 0 50	50 0 50	50 0 50	50 0 50	50 0 50	50 0 50	50 0 50	50 0 50	50 0 50	62 0 38	
21 0 79	30 0 70	32 0 68	33 0 67	33 0 67	33 0 67	33 0 67	33 0 67	33 0 67	33 0 67	33 0 67	33 0 67	33 0 67	33 0 67	33 0 67	48 0 52	
21 0 79	30 0 70	32 0 68	33 0 67	33 0 67	33 0 67	33 0 67	33 0 67	33 0 67	33 0 67	33 0 67	33 0 67	33 0 67	33 0 67	33 0 67	48 0 52	
37 0 63	50 0 50	50 0 50	50 0 50	50 0 50	50 0 50	50 0 50	50 0 50	50 0 50	50 0 50	50 0 50	50 0 50	50 0 50	50 0 50	50 0 50	62 0 38	
37 0 63	50 0 50	50 0 50	50 0 50	50 0 50	50 0 50	50 0 50	50 0 50	50 0 50	50 0 50	50 0 50	50 0 50	50 0 50	50 0 50	50 0 50	62 0 38	
21 0 79	30 0 70	32 0 68	33 0 67	33 0 67	33 0 67	33 0 67	33 0 67	33 0 67	33 0 67	33 0 67	33 0 67	33 0 67	33 0 67	33 0 67	48 0 52	
21 0 79	30 0 70	32 0 68	33 0 67	33 0 67	33 0 67	33 0 67	33 0 67	33 0 67	33 0 67	33 0 67	33 0 67	33 0 67	33 0 67	33 0 67	48 0 52	
37 0 63	50 0 50	50 0 50	50 0 50	50 0 50	50 0 50	50 0 50	50 0 50	50 0 50	50 0 50	50 0 50	50 0 50	50 0 50	50 0 50	50 0 50	62 0 38	
37 0 63	50 0 50	50 0 50	50 0 50	50 0 50	50 0 50	50 0 50	50 0 50	50 0 50	50 0 50	50 0 50	50 0 50	50 0 50	50 0 50	50 0 50	62 0 38	
21 0 79	30 0 70	32 0 68	33 0 67	33 0 67	33 0 67	33 0 67	33 0 67	33 0 67	33 0 67	33 0 67	33 0 67	33 0 67	33 0 67	33 0 67	48 0 52	
